<svg xmlns="http://www.w3.org/2000/svg" viewBox="0 0 446.38 121.58"><defs><style>.cls-1{isolation:isolate;}.cls-2{fill:#fff;}</style></defs><title>csb-light</title><g id="Layer_2" data-name="Layer 2"><g id="Layer_1-2" data-name="Layer 1"><g id="Group_70" data-name="Group 70"><g id="CSB" class="cls-1"><g class="cls-1"><path class="cls-2" d="M0,60.79C0,26.39,25.55,0,60.79,0,82,0,100.71,10.52,110.89,27.05l-23,13.37c-5.18-9-15.2-14.37-27.06-14.37-20.71,0-34.07,13.87-34.07,34.74S40.08,95.53,60.79,95.53c11.86,0,22.05-5.35,27.06-14.36l23,13.36c-10,16.53-28.72,27.05-50.1,27.05C25.55,121.58,0,95.19,0,60.79Z"/><path class="cls-2" d="M117.57,92.69l23-13.36c4.18,9.68,11.36,16.2,24.56,16.2,12.69,0,15.86-5,15.86-9.52,0-7.18-6.68-10-24.22-14.86-17.36-4.85-34.4-13.2-34.4-35.58C122.41,13,141.45,0,161.66,0c19.2,0,34.23,9.19,42.75,26.39L181.87,39.58c-4-8.35-9.52-13.53-20.21-13.53-8.35,0-12.53,4.18-12.53,8.85,0,5.35,2.84,9,21.05,14.53,17.7,5.35,37.57,11.53,37.57,36.24,0,22.55-18,35.91-43.42,35.91C139.78,121.58,124.08,109.89,117.57,92.69Z"/><path class="cls-2" d="M307.12,85c0,20.71-16.87,34.23-37.75,34.23h-49.1V2.34H266c20.38,0,36.91,13.19,36.91,33.4a29.25,29.25,0,0,1-10.19,22.88A30.18,30.18,0,0,1,307.12,85ZM247,27.39V48.1h19c6,0,10.19-4.34,10.19-10.36s-4-10.35-10.19-10.35ZM280.4,83c0-6.51-4.35-11.19-11-11.19H247V94.19h22.38C276.05,94.19,280.4,89.52,280.4,83Z"/></g></g><g id="Group_43" data-name="Group 43"><path id="Path_50" data-name="Path 50" class="cls-2" d="M415.3,3.93H389.84V62.24h12.72V15.32h12.73V3.93ZM369.4,62.24h12.72V3.93H369.4Zm-20.45,0h12.72V3.93H349Zm-20.45,0h12.73V3.93H328.5ZM423,4.71V15.82c6.91,2.75,11,9.17,11,17.27,0,11.07-7.67,18.67-18.67,18.67h-5.08V62.24h5.08c18,0,31-12.26,31-29.15C446.38,18.9,437,7.66,423,4.71Z"/></g></g></g></g></svg>